<?xml version="1.0" encoding="utf-8"?>
<!-- Generator: Adobe Illustrator 25.4.1, SVG Export Plug-In . SVG Version: 6.00 Build 0)  -->
<svg version="1.1" id="Layer_1" xmlns="http://www.w3.org/2000/svg" xmlns:xlink="http://www.w3.org/1999/xlink" x="0px" y="0px"
	 viewBox="0 0 350.6 350.6" style="enable-background:new 0 0 350.6 350.6;" xml:space="preserve">
<style type="text/css">
	.st0{fill:#FFFFFF;}
</style>
<path class="st0" d="M93.2,237.5L231,102.3c8.5-8.3,22.1-8.2,30.4,0.3l0,0c8.3,8.5,8.2,22.1-0.3,30.4L123.4,268.2
	c-8.5,8.3-22.1,8.2-30.4-0.3l0,0C84.6,259.4,84.8,245.8,93.2,237.5z"/>
<path class="st0" d="M223.9,268l-127-142.6c-7.9-8.9-7.1-22.5,1.8-30.4l0,0c8.9-7.9,22.5-7.1,30.4,1.8l127,142.6
	c7.9,8.9,7.1,22.5-1.8,30.4l0,0C245.4,277.6,231.8,276.9,223.9,268z"/>
</svg>
