<svg width="508" height="508" viewBox="0 0 508 508" fill="none" xmlns="http://www.w3.org/2000/svg">
<g id="Group 1">
<g id="pressure-meter-svgrepo-com 1">
<path id="Vector" d="M254 486C381.025 486 484 382.13 484 254C484 125.87 381.025 22 254 22C126.975 22 24 125.87 24 254C24 382.13 126.975 486 254 486Z" fill="#FD8469"/>
<path id="Vector_2" d="M254 446.8C147.6 446.8 61.2 360.4 61.2 254C61.2 147.6 147.6 61.2 254 61.2C360.4 61.2 446.8 147.6 446.8 254C446.8 360.4 360.4 446.8 254 446.8Z" fill="#324A5E"/>
<path id="Vector_3" d="M406.8 262.8C406.8 260 407.2 256.8 407.2 254C407.2 169.6 338.8 100.8 254 100.8C169.6 100.8 100.8 169.2 100.8 254C100.8 256.8 100.8 260 101.2 262.8H406.8Z" fill="#E6E9EE"/>
<path id="needle" d="M144.218 251.049C142.786 251.221 141.887 252.111 142.059 253.543C141.874 254.794 142.94 256.23 144.372 256.059L253.63 264.309C254.167 264.133 254.881 264.494 255.419 264.318C261.504 263.813 266.003 258.469 265.497 252.384C264.992 246.299 259.648 241.8 253.563 242.306L144.218 251.049Z" fill="#FF7058"/>
<path id="Vector_4" d="M254 290.4C269.243 290.4 281.6 278.043 281.6 262.8C281.6 247.557 269.243 235.2 254 235.2C238.757 235.2 226.4 247.557 226.4 262.8C226.4 278.043 238.757 290.4 254 290.4Z" fill="#FFD05B"/>
<g id="Group">
<path id="Vector_5" d="M254 136C251.2 136 248.8 133.6 248.8 130.8V120C248.8 117.2 251.2 114.8 254 114.8C256.8 114.8 259.2 117.2 259.2 120V130.8C259.2 133.6 256.8 136 254 136Z" fill="#ACB3BA"/>
<path id="Vector_6" d="M337.6 170.4C335.6 168.4 335.6 165.2 337.6 163.2L345.2 155.6C347.2 153.6 350.4 153.6 352.4 155.6C354.4 157.6 354.4 160.8 352.4 162.8L344.8 170.4C342.4 172.4 339.2 172.4 337.6 170.4Z" fill="#ACB3BA"/>
<path id="Vector_7" d="M156 156C158 154 161.2 154 163.2 156L170.8 163.6C172.8 165.6 172.8 168.8 170.8 170.8C168.8 172.8 165.6 172.8 163.6 170.8L156 163.2C154 161.2 154 158 156 156Z" fill="#ACB3BA"/>
<path id="Vector_8" d="M208.8 144.8C206.4 146 203.2 144.8 202.4 142L198.4 132C197.2 129.6 198.4 126.4 201.2 125.6C203.6 124.4 206.8 125.6 207.6 128.4L211.6 138.4C212.8 140.8 211.6 144 208.8 144.8Z" fill="#ACB3BA"/>
<path id="Vector_9" d="M363.2 208.8C362 206.4 363.2 203.2 366 202.4L376 198.4C378.4 197.2 381.6 198.4 382.4 201.2C383.6 203.6 382.4 206.8 379.6 207.6L369.6 211.6C367.2 212.8 364 211.6 363.2 208.8Z" fill="#ACB3BA"/>
<path id="Vector_10" d="M299.2 144.8C296.8 143.6 295.6 140.8 296.4 138.4L300.4 128.4C301.6 126 304.4 124.8 306.8 125.6C309.2 126.8 310.4 129.6 309.6 132L305.6 142C304.8 144.8 301.6 146 299.2 144.8Z" fill="#ACB3BA"/>
<path id="Vector_11" d="M125.6 200.8C126.8 198.4 129.6 197.2 132 198L142 202C144.4 203.2 145.6 206 144.8 208.4C143.6 210.8 140.8 212 138.4 211.2L128.4 207.2C126 206.4 124.8 203.6 125.6 200.8Z" fill="#ACB3BA"/>
<path id="Vector_12" d="M114.561 249.948C115.026 247.305 117.366 245.355 119.895 245.436L130.621 246.412C133.263 246.877 135.213 249.217 135.132 251.746C134.668 254.388 132.328 256.338 129.799 256.257L119.073 255.281C116.545 255.2 114.595 252.86 114.561 249.948Z" fill="#ACB3BA"/>
<path id="Vector_13" d="M370.107 249.948C370.571 247.305 372.912 245.355 375.44 245.436L386.166 246.412C388.809 246.877 390.759 249.217 390.678 251.746C390.214 254.388 387.873 256.338 385.345 256.257L374.619 255.281C372.09 255.2 370.14 252.86 370.107 249.948Z" fill="#ACB3BA"/>
</g>
</g>
</g>
</svg>
