<svg width="362" height="543" viewBox="0 0 362 543" fill="none" xmlns="http://www.w3.org/2000/svg">
<path id="Vector" d="M180.144 542.035H179.495C145.105 541.885 111.713 530.854 83.0126 510.09C52.7152 488.228 28.4074 455.834 12.7346 416.503C-2.53886 378.069 -3.38739 332.399 10.3388 280.788C21.0202 240.508 40.5863 196.435 68.4379 149.716C115.506 70.8527 169.413 12.4042 171.709 9.9584L180.843 0.125473L189.977 9.9584C192.273 12.4042 246.479 71.0523 293.697 150.065C321.648 196.834 341.214 240.957 351.846 281.188C365.472 332.798 364.474 378.319 348.901 416.553C332.829 456.034 308.022 488.528 277.225 510.44C248.126 531.104 214.584 542.035 180.144 542.035V542.035ZM180.843 37.261C163.423 57.3761 124.141 104.993 89.6012 162.893C48.3228 232.173 5.49719 330.801 35.9443 407.269C63.197 475.75 116.904 516.828 179.595 517.078H180.144C242.386 517.078 298.139 475.001 325.791 407.169C356.737 331.201 313.862 232.572 272.484 163.242C237.844 105.193 198.312 57.3761 180.843 37.261V37.261Z" fill="#2381BF"/>
<path id="water" d="M174.837 333.049C150.264 333.049 149.614 360.59 123.742 360.59C97.8702 360.59 100.168 333.049 74.895 333.049C49.6223 333.049 24 378.972 24 378.972C86.6323 580.919 273.48 579.766 337.212 378.972C343.055 360.526 346.552 341.183 348 321.328C348 321.328 335.863 360.59 311.539 360.59C287.216 360.59 288.814 333.049 265.289 333.049C241.765 333.049 246.21 360.59 221.087 360.59C195.964 360.59 199.411 333.049 174.837 333.049Z" fill="#2381BF"/>
</svg>
