<svg width="389" height="529" viewBox="0 0 389 529" fill="none" xmlns="http://www.w3.org/2000/svg">
<g id="Group">
<g id="pole">
<path id="Vector" d="M228.077 264.573L181.927 292.912V504.695C181.927 518.121 192.806 529 206.232 529C219.658 529 230.536 518.121 230.536 504.695V267.635L228.077 264.573Z" fill="#805333"/>
<path id="Vector_2" d="M237.215 168.335C228.3 153.83 212.804 145.158 195.751 145.158C186.797 145.158 178.018 147.647 170.358 152.353C147.521 166.372 140.356 196.364 154.365 219.21C163.28 233.725 178.777 242.387 195.829 242.387C204.783 242.387 213.562 239.899 221.233 235.193C232.296 228.407 240.054 217.713 243.078 205.075C246.092 192.456 244.011 179.409 237.215 168.335Z" fill="#9777A8"/>
</g>
<g id="wheel">
<path id="Vector_3" d="M235.524 165.565C244.867 185.456 238.178 209.566 219.006 221.339C211.336 226.045 202.79 228.096 194.429 227.766L218.646 267.198L289.869 383.181C365.691 330.663 363.795 289.315 314.933 209.751L274.237 143.476L235.524 165.565Z" fill="#BDC3C7"/>
<path id="Vector_4" d="M168.238 209.158C167.363 207.738 166.799 206.232 166.109 204.764L115.565 235.806L0 306.776C52.5179 382.597 91.9696 375.802 171.524 326.939L237.799 286.243L203.218 229.934C189.354 229.175 176.055 221.894 168.238 209.158Z" fill="#ECF0F1"/>
<path id="Vector_5" d="M216.935 60.3927L150.661 101.089L182.588 153.082C200.185 149.348 218.977 156.611 228.932 172.817C229.807 174.237 230.371 175.744 231.061 177.212L272.905 151.516L388.887 80.2935C336.36 4.47208 296.49 11.5399 216.935 60.3927Z" fill="#ECF0F1"/>
<path id="Vector_6" d="M172.905 156.494C177.134 153.898 181.655 152.304 186.234 151.273L164.563 115.983L93.3404 0C17.519 52.5179 24.9951 92.1251 73.8479 171.689L114.544 237.964L156.387 212.269C147.044 192.378 153.733 168.267 172.905 156.494Z" fill="#BDC3C7"/>
</g>
</g>
</svg>
